<svg width="423" height="85" viewBox="0 0 423 85" fill="none" xmlns="http://www.w3.org/2000/svg">
<g clip-path="url(#clip0)">
<path d="M58.946 77.2647C60.6737 79.4354 59.5841 80.7066 57.3146 80.7066H49.4889C48.6302 80.721 47.7817 80.5211 47.0204 80.1252C46.2592 79.7293 45.6095 79.15 45.1305 78.44L38.0452 69.4872C36.0514 69.7756 34.04 69.9259 32.0254 69.937C13.8937 69.937 0 56.9066 0 39.4569C0 22.0072 13.8937 8.96484 32.0615 8.96484C50.3196 8.96484 64.123 21.9952 64.123 39.4569C64.123 50.5864 58.4945 59.9948 49.5912 65.2417L58.946 77.2647ZM32.0615 58.8975C43.0537 58.8975 51.6801 50.7543 51.6801 39.4449C51.6801 28.1356 43.0537 19.9924 32.0615 19.9924C21.0693 19.9924 12.5212 28.0636 12.5212 39.4569C12.5212 50.8502 21.0693 58.8975 32.0615 58.8975V58.8975Z" fill="white"/>
<path d="M114.437 26.5944V65.3256C114.437 67.4904 113.16 68.8516 110.987 68.8516H107.712C105.533 68.8516 104.263 67.4904 104.263 65.3256V62.8791C101.446 67.1306 96.9069 70.0269 90.3634 70.0269C79.2869 70.0269 71.9247 62.5193 71.9247 51.3898V26.5944C71.9247 24.4237 73.1286 23.1584 75.2837 23.1584H80.5451C82.7242 23.1584 83.9944 24.4237 83.9944 26.5944V50.0286C83.9944 55.7313 87.4438 59.623 92.988 59.623C98.7068 59.623 102.343 55.7313 102.343 49.7588V26.5944C102.343 24.4237 103.547 23.1584 105.702 23.1584H110.975C113.16 23.1584 114.437 24.4237 114.437 26.5944Z" fill="white"/>
<path d="M123.888 7.77735C123.888 6.23556 124.347 4.7284 125.207 3.44645C126.066 2.1645 127.289 1.16535 128.719 0.575329C130.149 -0.0146879 131.722 -0.169064 133.24 0.131724C134.758 0.432511 136.153 1.17495 137.247 2.26516C138.342 3.35537 139.087 4.74438 139.389 6.25654C139.691 7.7687 139.536 9.3361 138.943 10.7605C138.351 12.185 137.348 13.4024 136.061 14.259C134.774 15.1156 133.261 15.5728 131.713 15.5728C129.638 15.5728 127.647 14.7515 126.18 13.2895C124.712 11.8276 123.888 9.84482 123.888 7.77735V7.77735ZM125.615 65.3435V26.5943C125.615 24.4236 126.886 23.1583 129.065 23.1583H134.332C136.511 23.1583 137.691 24.4236 137.691 26.5943V65.3255C137.691 67.4902 136.487 68.8514 134.332 68.8514H129.065C126.898 68.8394 125.603 67.4902 125.603 65.3255L125.615 65.3435Z" fill="white"/>
<path d="M146.035 46.2327C146.035 32.5668 156.389 22.4387 170.559 22.4387C177.283 22.4387 183.46 24.6034 188.36 29.4006C189.449 30.486 190.088 31.9371 188.36 33.6581L185.181 36.8243C183.977 37.9096 182.725 38.3594 180.823 36.7343C179.518 35.4573 177.97 34.4542 176.269 33.7847C174.568 33.1152 172.749 32.7928 170.92 32.8366C163.384 32.8366 158.026 38.5393 158.026 46.2327C158.026 53.8363 163.113 59.6229 170.92 59.6229C174.606 59.671 178.163 58.2731 180.823 55.7311C182.725 54.0161 184.001 54.4659 185.181 55.6412L188.36 58.8073C190.088 60.5283 189.449 61.8835 188.36 62.9689C183.484 67.856 177.283 70.0387 170.559 70.0387C156.395 70.0387 146.035 59.8027 146.035 46.2327Z" fill="white"/>
<path d="M236.771 68.8395H229.589C227.32 68.8395 225.978 67.7542 224.412 65.4935L213.059 50.1965L208.701 54.9037V65.3136C208.701 67.4783 207.497 68.8395 205.342 68.8395H200.165C197.979 68.8395 196.709 67.4783 196.709 65.3136V8.77286C196.709 6.69209 197.913 5.77462 200.165 5.24693L205.071 4.33547C207.521 3.79579 208.683 5.33689 208.683 7.6875V43.9662L224.123 26.5044C225.929 24.3337 227.133 23.1584 229.391 23.1584H236.109C238.204 23.1584 239.474 24.6935 237.837 26.6903L222.035 43.9662L238.475 65.3256C240.13 67.3104 238.866 68.8395 236.771 68.8395Z" fill="white"/>
<path d="M283.539 41.4355V65.3254C283.539 67.5801 282.335 68.8514 280.18 68.8514H277.272C275.093 68.8514 273.823 67.4902 273.823 65.3254V63.7844C269.841 67.7437 264.46 69.9893 258.834 70.0387C248.209 70.0387 241.033 64.1561 241.033 55.4732C241.033 46.2447 248.859 40.0923 260.465 40.0923C264.524 40.1326 268.536 40.9616 272.276 42.5329V40.0563C272.276 34.8094 268.459 31.5533 262.193 31.5533C258.051 31.5439 254.002 32.7721 250.569 35.0792C248.763 36.1646 247.21 35.7988 246.024 33.814L245.211 32.3628C243.85 30.0122 244.573 28.3812 246.21 27.3858C251.187 24.0945 257.038 22.3631 263.012 22.4147C274.455 22.4387 283.539 28.0634 283.539 41.4355ZM272.577 53.7403V50.3942C270.302 49.3089 266.304 47.7678 262.127 47.7678C256.408 47.7678 252.591 50.6641 252.591 55.0055C252.591 59.0771 256.131 61.7935 261.495 61.7935C267.37 61.7935 272.577 58.1717 272.577 53.7403Z" fill="white"/>
<path d="M296.464 66.9806V15.4109C296.444 15.1599 296.479 14.9076 296.566 14.6714C296.653 14.4351 296.791 14.2204 296.969 14.0421C297.148 13.8638 297.363 13.7261 297.6 13.6384C297.837 13.5507 298.09 13.5151 298.342 13.534H316.034C327.911 13.534 334.84 19.6624 334.84 30.0483C334.84 40.2423 327.911 46.3947 316.034 46.3947H301.334V66.9806C301.355 67.2255 301.324 67.4724 301.242 67.7043C301.16 67.9363 301.029 68.1481 300.858 68.3254C300.687 68.5027 300.48 68.6414 300.25 68.7321C300.021 68.8229 299.774 68.8636 299.528 68.8515H298.245C298.001 68.86 297.757 68.8167 297.531 68.7244C297.304 68.6321 297.1 68.4929 296.931 68.316C296.763 68.1391 296.634 67.9286 296.553 67.6984C296.473 67.4681 296.442 67.2235 296.464 66.9806V66.9806ZM317.232 42.2871C325.178 42.2871 329.874 37.6938 329.874 30.0243C329.874 22.3548 325.172 17.7675 317.232 17.7675H301.334V42.2871H317.232Z" fill="#BCBEC0" stroke="#BCBEC0" stroke-width="0.75" stroke-miterlimit="10"/>
<path d="M376.551 42.0293V66.9806C376.551 68.2579 375.949 68.8515 374.842 68.8515H373.71C372.596 68.8515 371.994 68.084 371.994 66.9806V62.4653C368.497 67.1485 362.682 69.8709 356.523 69.8709C346.699 69.8709 340.035 64.4261 340.035 56.247C340.035 47.9059 347.211 42.2872 357.812 42.2872C362.765 42.3031 367.637 43.5391 371.994 45.8851V41.1239C371.994 34.2219 366.871 29.5387 359.003 29.5387C354.392 29.5387 349.516 31.2477 345.074 34.8216C344.05 35.6731 343.268 35.3313 342.593 34.5637L342.25 34.138C341.402 33.1186 341.829 32.0092 342.768 31.2477C348.324 26.9842 353.369 25.2872 359.178 25.2872C370.224 25.2632 376.551 31.6614 376.551 42.0293ZM372.018 53.4226V50.1905C368.942 48.6554 363.56 46.4427 357.92 46.4427C350.052 46.4427 344.839 50.3584 344.839 56.3189C344.839 61.8537 349.715 65.5955 356.806 65.5955C364.415 65.6135 372.018 61.1041 372.018 53.4406V53.4226Z" fill="#BCBEC0" stroke="#BCBEC0" stroke-width="0.75" stroke-miterlimit="10"/>
<path d="M422.621 27.8178L401.172 75.9215C398.265 82.4696 395.532 84.7723 390.571 84.7723C388.618 84.8338 386.689 84.3319 385.015 83.3271C384.244 82.8114 383.48 82.2178 383.992 80.9285L384.166 80.5867C384.678 79.4834 385.785 79.2255 387.068 79.9091C388.134 80.4298 389.3 80.72 390.487 80.7606C393.22 80.7606 394.93 79.6513 396.814 75.3638L400.486 67.0227L383.396 27.7758C383.28 27.5814 383.222 27.3584 383.228 27.1326C383.234 26.9067 383.304 26.6871 383.43 26.4991C383.555 26.3111 383.732 26.1624 383.939 26.07C384.146 25.9776 384.375 25.9453 384.6 25.9769H386.406C387.61 25.9769 388.115 26.5765 388.549 27.6798L403.159 61.3141L417.775 27.6798C418.202 26.5705 418.714 25.9769 419.912 25.9769H421.453C421.681 25.9469 421.913 25.9827 422.121 26.0798C422.329 26.177 422.505 26.3316 422.628 26.5252C422.751 26.7188 422.815 26.9435 422.814 27.1725C422.813 27.4016 422.746 27.6255 422.621 27.8178V27.8178Z" fill="#BCBEC0" stroke="#BCBEC0" stroke-width="0.75" stroke-miterlimit="10"/>
</g>
<defs>
<clipPath id="clip0">
<rect width="423" height="85" fill="white"/>
</clipPath>
</defs>
</svg>
