<svg width="420" height="85" viewBox="0 0 420 85" fill="none" xmlns="http://www.w3.org/2000/svg">
<path d="M58.3962 76.9005C60.1078 79.0605 59.0284 80.3255 56.7801 80.3255H49.0273C48.1767 80.3398 47.336 80.1409 46.5819 79.7469C45.8278 79.353 45.1841 78.7765 44.7096 78.07L37.6904 69.1615C35.7152 69.4485 33.7226 69.598 31.7267 69.6091C13.7641 69.6091 0 56.6431 0 39.2796C0 21.9161 13.7641 8.93823 31.7625 8.93823C49.8503 8.93823 63.525 21.9042 63.525 39.2796C63.525 50.3541 57.949 59.716 49.1287 64.937L58.3962 76.9005ZM31.7625 58.6241C42.6522 58.6241 51.1981 50.5211 51.1981 39.2677C51.1981 28.0142 42.6522 19.9112 31.7625 19.9112C20.8728 19.9112 12.4044 27.9426 12.4044 39.2796C12.4044 50.6166 20.8728 58.6241 31.7625 58.6241V58.6241Z" fill="#2BAAE2"/>
<path d="M113.369 26.4805V65.0203C113.369 67.1744 112.105 68.5288 109.952 68.5288H106.708C104.549 68.5288 103.291 67.1744 103.291 65.0203V62.5859C100.5 66.8163 96.0033 69.6983 89.5208 69.6983C78.5476 69.6983 71.254 62.2278 71.254 51.1534V26.4805C71.254 24.3205 72.4468 23.0615 74.5818 23.0615H79.794C81.9529 23.0615 83.2112 24.3205 83.2112 26.4805V49.7989C83.2112 55.4734 86.6284 59.3459 92.1209 59.3459C97.7864 59.3459 101.388 55.4734 101.388 49.5304V26.4805C101.388 24.3205 102.581 23.0615 104.716 23.0615H109.94C112.105 23.0615 113.369 24.3205 113.369 26.4805Z" fill="#2BAAE2"/>
<path d="M122.732 7.75689C122.732 6.22272 123.187 4.72301 124.039 3.44739C124.891 2.17178 126.101 1.17756 127.518 0.590462C128.935 0.00336179 130.494 -0.150252 131.997 0.14905C133.501 0.448351 134.883 1.18712 135.967 2.27195C137.051 3.35677 137.79 4.73891 138.089 6.2436C138.388 7.74829 138.234 9.30794 137.648 10.7253C137.061 12.1427 136.067 13.3542 134.792 14.2065C133.517 15.0589 132.018 15.5138 130.485 15.5138C128.429 15.5138 126.457 14.6965 125.003 13.2418C123.549 11.7871 122.732 9.81415 122.732 7.75689V7.75689ZM124.444 65.0385V26.4808C124.444 24.3208 125.702 23.0618 127.861 23.0618H133.079C135.238 23.0618 136.407 24.3208 136.407 26.4808V65.0206C136.407 67.1747 135.214 68.5291 133.079 68.5291H127.861C125.714 68.5172 124.432 67.1747 124.432 65.0206L124.444 65.0385Z" fill="#2BAAE2"/>
<path d="M144.673 46.0219C144.673 32.4234 154.93 22.3455 168.969 22.3455C175.63 22.3455 181.749 24.4995 186.603 29.273C187.683 30.353 188.315 31.7969 186.603 33.5094L183.454 36.6599C182.262 37.7399 181.021 38.1874 179.137 36.5704C177.844 35.2997 176.31 34.3016 174.625 33.6354C172.94 32.9691 171.138 32.6483 169.326 32.692C161.86 32.692 156.552 38.3664 156.552 46.0219C156.552 53.5878 161.592 59.3458 169.326 59.3458C172.978 59.3937 176.502 58.0027 179.137 55.4733C181.021 53.7668 182.286 54.2143 183.454 55.3838L186.603 58.5343C188.315 60.2468 187.683 61.5953 186.603 62.6753C181.773 67.5383 175.63 69.7102 168.969 69.7102C154.936 69.7102 144.673 59.5248 144.673 46.0219Z" fill="#2BAAE2"/>
<path d="M234.563 68.5171H227.448C225.2 68.5171 223.87 67.4371 222.32 65.1876L211.072 49.9662L206.755 54.6501V65.0085C206.755 67.1626 205.562 68.5171 203.427 68.5171H198.298C196.133 68.5171 194.875 67.1626 194.875 65.0085V8.74723C194.875 6.67673 196.068 5.7638 198.298 5.23872L203.158 4.33176C205.586 3.79475 206.737 5.32823 206.737 7.66723V43.7666L222.033 26.3912C223.823 24.2312 225.015 23.0617 227.252 23.0617H233.907C235.982 23.0617 237.241 24.5892 235.619 26.5761L219.964 43.7666L236.251 65.0205C237.891 66.9955 236.638 68.5171 234.563 68.5171Z" fill="#2BAAE2"/>
<path d="M280.895 41.2485V65.0204C280.895 67.2639 279.702 68.5289 277.567 68.5289H274.686C272.528 68.5289 271.269 67.1744 271.269 65.0204V63.4869C267.325 67.4266 261.993 69.6611 256.42 69.7103C245.894 69.7103 238.785 63.8568 238.785 55.2169C238.785 46.0339 246.538 39.9119 258.036 39.9119C262.057 39.952 266.031 40.777 269.737 42.3404V39.8761C269.737 34.6551 265.956 31.4151 259.747 31.4151C255.644 31.4058 251.633 32.6279 248.232 34.9236C246.442 36.0036 244.904 35.6397 243.729 33.6646L242.924 32.2207C241.576 29.8817 242.292 28.2587 243.914 27.2682C248.844 23.9932 254.641 22.2704 260.558 22.3217C271.895 22.3455 280.895 27.9424 280.895 41.2485ZM270.035 53.4924V50.1629C267.78 49.0829 263.821 47.5495 259.682 47.5495C254.016 47.5495 250.235 50.4314 250.235 54.7514C250.235 58.8029 253.742 61.5059 259.056 61.5059C264.876 61.5059 270.035 57.9019 270.035 53.4924Z" fill="#2BAAE2"/>
<path d="M293.699 66.6673V15.3525C293.679 15.1028 293.714 14.8517 293.8 14.6166C293.887 14.3815 294.023 14.1679 294.2 13.9905C294.376 13.8131 294.589 13.676 294.824 13.5888C295.059 13.5015 295.31 13.4661 295.559 13.4849H313.086C324.853 13.4849 331.717 19.583 331.717 29.9176C331.717 40.0612 324.853 46.1832 313.086 46.1832H298.523V66.6673C298.545 66.9111 298.514 67.1567 298.433 67.3876C298.351 67.6184 298.222 67.8291 298.052 68.0055C297.883 68.1819 297.677 68.32 297.45 68.4103C297.223 68.5006 296.978 68.541 296.734 68.529H295.464C295.222 68.5375 294.98 68.4945 294.756 68.4026C294.531 68.3108 294.329 68.1722 294.162 67.9962C293.995 67.8202 293.867 67.6107 293.788 67.3816C293.708 67.1525 293.677 66.909 293.699 66.6673V66.6673ZM314.273 42.0959C322.145 42.0959 326.797 37.5253 326.797 29.8937C326.797 22.2621 322.139 17.6975 314.273 17.6975H298.523V42.0959H314.273Z" fill="#2B648B" stroke="#2B648B" stroke-width="0.75" stroke-miterlimit="10"/>
<path d="M373.039 41.8394V66.6674C373.039 67.9384 372.443 68.5291 371.346 68.5291H370.225C369.121 68.5291 368.525 67.7653 368.525 66.6674V62.1744C365.06 66.8345 359.299 69.5435 353.198 69.5435C343.466 69.5435 336.864 64.1256 336.864 55.9868C336.864 47.6869 343.972 42.096 354.474 42.096C359.381 42.1119 364.208 43.3418 368.525 45.6761V40.9384C368.525 34.0706 363.45 29.4105 355.655 29.4105C351.087 29.4105 346.257 31.111 341.855 34.6673C340.842 35.5146 340.066 35.1745 339.398 34.4107L339.058 33.9871C338.218 32.9727 338.641 31.8688 339.571 31.111C345.076 26.8686 350.073 25.18 355.828 25.18C366.772 25.1561 373.039 31.5227 373.039 41.8394ZM368.549 53.1764V49.9603C365.501 48.4328 360.17 46.231 354.582 46.231C346.787 46.231 341.623 50.1274 341.623 56.0584C341.623 61.5658 346.453 65.2891 353.479 65.2891C361.017 65.307 368.549 60.8199 368.549 53.1943V53.1764Z" fill="#2B648B" stroke="#2B648B" stroke-width="0.75" stroke-miterlimit="10"/>
<path d="M418.679 27.6975L397.431 75.5635C394.55 82.0793 391.843 84.3706 386.929 84.3706C384.994 84.4317 383.082 83.9324 381.424 82.9326C380.661 82.4194 379.904 81.8287 380.41 80.5458L380.583 80.2057C381.09 79.1078 382.188 78.8512 383.458 79.5315C384.515 80.0496 385.669 80.3383 386.845 80.3788C389.553 80.3788 391.246 79.2749 393.113 75.0086L396.751 66.7087L379.82 27.6558C379.706 27.4623 379.648 27.2405 379.654 27.0157C379.66 26.791 379.729 26.5725 379.854 26.3854C379.978 26.1983 380.153 26.0503 380.358 25.9584C380.563 25.8664 380.79 25.8343 381.013 25.8657H382.802C383.995 25.8657 384.496 26.4624 384.925 27.5603L399.399 61.0283L413.879 27.5603C414.302 26.4564 414.809 25.8657 415.996 25.8657H417.522C417.748 25.8359 417.978 25.8715 418.184 25.9682C418.391 26.0649 418.565 26.2187 418.686 26.4114C418.808 26.604 418.872 26.8276 418.871 27.0555C418.87 27.2834 418.803 27.5062 418.679 27.6975V27.6975Z" fill="#2B648B" stroke="#2B648B" stroke-width="0.75" stroke-miterlimit="10"/>
</svg>
